<?xml version="1.0" encoding="iso-8859-1"?>
<!-- Uploaded to: SVG Repo, www.svgrepo.com, Generator: SVG Repo Mixer Tools -->
<svg height="800px" width="800px" version="1.1" id="Layer_1" xmlns="http://www.w3.org/2000/svg" xmlns:xlink="http://www.w3.org/1999/xlink" 
	 viewBox="0 0 512 512" xml:space="preserve">
<path style="fill:#E0E0E0;" d="M512,256H256V0h201.143C487.314,0,512,24.686,512,54.857V256z"/>
<g>
	<path style="fill:#F89231;" d="M256,256H0V54.857C0,24.686,24.686,0,54.857,0H256V256z"/>
	<path style="fill:#F89231;" d="M457.143,512H256V256h256v201.143C512,487.314,487.314,512,457.143,512"/>
</g>
<path style="fill:#E0E0E0;" d="M256,512H54.857C24.686,512,0,487.314,0,457.143V256h256V512z"/>
<g>
	<path style="fill:#FFFFFF;" d="M128,192c-5.486,0-9.143-3.657-9.143-9.143V73.143c0-5.486,3.657-9.143,9.143-9.143
		c5.486,0,9.143,3.657,9.143,9.143v109.714C137.143,188.343,133.486,192,128,192z"/>
	<path style="fill:#FFFFFF;" d="M182.857,137.143H73.143c-5.486,0-9.143-3.657-9.143-9.143c0-5.486,3.657-9.143,9.143-9.143h109.714
		c5.486,0,9.143,3.657,9.143,9.143C192,133.486,188.343,137.143,182.857,137.143z"/>
	<path style="fill:#FFFFFF;" d="M82.286,438.857c-2.743,0-4.571-0.914-6.4-2.743c-3.657-3.657-3.657-9.143,0-12.8l91.429-91.429
		c3.657-3.657,9.143-3.657,12.8,0c3.657,3.657,3.657,9.143,0,12.8l-91.429,91.429C86.857,437.943,85.029,438.857,82.286,438.857"/>
	<path style="fill:#FFFFFF;" d="M173.714,438.857c-2.743,0-4.571-0.914-6.4-2.743l-91.429-91.429c-3.657-3.657-3.657-9.143,0-12.8
		c3.657-3.657,9.143-3.657,12.8,0l91.429,91.429c3.657,3.657,3.657,9.143,0,12.8C178.286,437.943,176.457,438.857,173.714,438.857"
		/>
	<path style="fill:#FFFFFF;" d="M438.857,137.143H329.143c-5.486,0-9.143-3.657-9.143-9.143c0-5.486,3.657-9.143,9.143-9.143
		h109.714c5.486,0,9.143,3.657,9.143,9.143C448,133.486,444.343,137.143,438.857,137.143"/>
	<path style="fill:#FFFFFF;" d="M438.857,420.571H329.143c-5.486,0-9.143-3.657-9.143-9.143s3.657-9.143,9.143-9.143h109.714
		c5.486,0,9.143,3.657,9.143,9.143S444.343,420.571,438.857,420.571z"/>
	<path style="fill:#FFFFFF;" d="M438.857,365.714H329.143c-5.486,0-9.143-3.657-9.143-9.143c0-5.486,3.657-9.143,9.143-9.143
		h109.714c5.486,0,9.143,3.657,9.143,9.143C448,362.057,444.343,365.714,438.857,365.714z"/>
</g>
</svg>